# MagicaVoxel @ Ephtracy

# group
o 

# material
mtllib Door.mtl
usemtl palette

# normals
vn -1 0 0
vn 1 0 0
vn 0 0 1
vn 0 0 -1
vn 0 -1 0
vn 0 1 0

# texcoords
vt 0.0683594 0.5
vt 0.306641 0.5
vt 0.958984 0.5

# verts
v -0.6 0 0.5
v -0.6 0 0.3
v -0.6 0.1 0.5
v -0.6 0.1 0.3
v -0.5 0 0.6
v -0.5 0 0.5
v -0.5 0 0.3
v -0.5 0 0.2
v -0.5 0.1 0.6
v -0.5 0.1 0.5
v -0.5 0.1 0.3
v -0.5 0.1 0.2
v -0.5 0.2 0.5
v -0.5 0.2 0.3
v -0.4 0.1 0.6
v -0.4 0.1 0.5
v -0.4 0.1 0.3
v -0.4 0.1 0.2
v -0.4 0.2 0.5
v -0.4 0.2 0.3
v -0.4 0.3 0.6
v -0.4 0.3 0.5
v -0.4 0.3 0.3
v -0.4 0.3 0.2
v -0.4 1.6 0.5
v -0.4 1.6 0.3
v -0.3 1.6 0.5
v -0.3 1.6 0.3
v -0.3 1.7 0.5
v -0.3 1.7 0.3
v -0.2 0.2 0.5
v -0.2 0.2 0.4
v -0.2 0.3 0.5
v -0.2 0.3 0.4
v -0.2 1.7 0.5
v -0.2 1.7 0.3
v -0.2 1.8 0.5
v -0.2 1.8 0.3
v 0.5 0 0.4
v 0.5 0 0.3
v 0.5 0.2 0.6
v 0.5 0.2 0.5
v 0.5 0.2 0.4
v 0.5 0.2 0.3
v 0.5 0.2 0.2
v 0.5 0.3 0.6
v 0.5 0.3 0.5
v 0.5 0.3 0.4
v 0.5 0.3 0.3
v 0.5 0.3 0.2
v 0.5 1.6 0.4
v 0.5 1.6 0.3
v 0.6 0.1 0.6
v 0.6 0.1 0.5
v 0.6 0.1 0.3
v 0.6 0.1 0.2
v 0.6 0.2 0.6
v 0.6 0.2 0.5
v 0.6 0.2 0.3
v 0.6 0.2 0.2
v 0.6 0.3 0.5
v 0.6 0.3 0.3
v 0.7 0 0.6
v 0.7 0 0.5
v 0.7 0 0.3
v 0.7 0 0.2
v 0.7 0.1 0.6
v 0.7 0.1 0.5
v 0.7 0.1 0.3
v 0.7 0.1 0.2
v -0.4 0 0.6
v -0.4 0 0.5
v -0.4 0 0.3
v -0.4 0 0.2
v -0.4 0.1 0.6
v -0.4 0.1 0.5
v -0.4 0.1 0.3
v -0.4 0.1 0.2
v -0.3 0.1 0.6
v -0.3 0.1 0.5
v -0.3 0.1 0.3
v -0.3 0.1 0.2
v -0.3 0.2 0.6
v -0.3 0.2 0.5
v -0.3 0.2 0.3
v -0.3 0.2 0.2
v -0.3 0.3 0.5
v -0.3 0.3 0.3
v -0.2 0 0.4
v -0.2 0 0.3
v -0.2 0.2 0.6
v -0.2 0.2 0.5
v -0.2 0.2 0.4
v -0.2 0.2 0.3
v -0.2 0.2 0.2
v -0.2 0.3 0.6
v -0.2 0.3 0.5
v -0.2 0.3 0.4
v -0.2 0.3 0.3
v -0.2 0.3 0.2
v -0.2 1.6 0.4
v -0.2 1.6 0.3
v 0.5 0.2 0.5
v 0.5 0.2 0.4
v 0.5 0.3 0.5
v 0.5 0.3 0.4
v 0.5 1.7 0.5
v 0.5 1.7 0.3
v 0.5 1.8 0.5
v 0.5 1.8 0.3
v 0.6 1.6 0.5
v 0.6 1.6 0.3
v 0.6 1.7 0.5
v 0.6 1.7 0.3
v 0.7 0.1 0.6
v 0.7 0.1 0.5
v 0.7 0.1 0.3
v 0.7 0.1 0.2
v 0.7 0.2 0.5
v 0.7 0.2 0.3
v 0.7 0.3 0.6
v 0.7 0.3 0.5
v 0.7 0.3 0.3
v 0.7 0.3 0.2
v 0.7 1.6 0.5
v 0.7 1.6 0.3
v 0.8 0 0.6
v 0.8 0 0.5
v 0.8 0 0.3
v 0.8 0 0.2
v 0.8 0.1 0.6
v 0.8 0.1 0.5
v 0.8 0.1 0.3
v 0.8 0.1 0.2
v 0.8 0.2 0.5
v 0.8 0.2 0.3
v 0.9 0 0.5
v 0.9 0 0.3
v 0.9 0.1 0.5
v 0.9 0.1 0.3
v -0.5 0 0.6
v -0.5 0.1 0.6
v -0.4 0 0.6
v -0.4 0.1 0.6
v -0.4 0.3 0.6
v -0.3 0.1 0.6
v -0.3 0.2 0.6
v -0.2 0.2 0.6
v -0.2 0.3 0.6
v 0.5 0.2 0.6
v 0.5 0.3 0.6
v 0.6 0.1 0.6
v 0.6 0.2 0.6
v 0.7 0 0.6
v 0.7 0.1 0.6
v 0.7 0.3 0.6
v 0.8 0 0.6
v 0.8 0.1 0.6
v -0.6 0 0.5
v -0.6 0.1 0.5
v -0.5 0 0.5
v -0.5 0.1 0.5
v -0.5 0.2 0.5
v -0.4 0 0.5
v -0.4 0.1 0.5
v -0.4 0.2 0.5
v -0.4 0.3 0.5
v -0.4 1.6 0.5
v -0.3 0.1 0.5
v -0.3 0.2 0.5
v -0.3 1.6 0.5
v -0.3 1.7 0.5
v -0.2 0 0.5
v -0.2 0.2 0.5
v -0.2 0.3 0.5
v -0.2 1.6 0.5
v -0.2 1.7 0.5
v -0.2 1.8 0.5
v 0.5 0 0.5
v 0.5 0.2 0.5
v 0.5 0.3 0.5
v 0.5 1.6 0.5
v 0.5 1.7 0.5
v 0.5 1.8 0.5
v 0.6 0.1 0.5
v 0.6 0.2 0.5
v 0.6 1.6 0.5
v 0.6 1.7 0.5
v 0.7 0 0.5
v 0.7 0.1 0.5
v 0.7 0.2 0.5
v 0.7 0.3 0.5
v 0.7 1.6 0.5
v 0.8 0 0.5
v 0.8 0.1 0.5
v 0.8 0.2 0.5
v 0.9 0 0.5
v 0.9 0.1 0.5
v -0.3 0.2 0.3
v -0.3 0.3 0.3
v -0.2 0.2 0.3
v -0.2 0.3 0.3
v 0.5 0.2 0.3
v 0.5 0.3 0.3
v 0.6 0.2 0.3
v 0.6 0.3 0.3
v -0.3 0.2 0.5
v -0.3 0.3 0.5
v -0.2 0.2 0.5
v -0.2 0.3 0.5
v 0.5 0.2 0.5
v 0.5 0.3 0.5
v 0.6 0.2 0.5
v 0.6 0.3 0.5
v -0.2 0 0.4
v -0.2 0.2 0.4
v -0.2 0.3 0.4
v -0.2 1.6 0.4
v 0.5 0 0.4
v 0.5 0.2 0.4
v 0.5 0.3 0.4
v 0.5 1.6 0.4
v -0.6 0 0.3
v -0.6 0.1 0.3
v -0.5 0 0.3
v -0.5 0.1 0.3
v -0.5 0.2 0.3
v -0.4 0 0.3
v -0.4 0.1 0.3
v -0.4 0.2 0.3
v -0.4 0.3 0.3
v -0.4 1.6 0.3
v -0.3 0.1 0.3
v -0.3 0.2 0.3
v -0.3 1.6 0.3
v -0.3 1.7 0.3
v -0.2 0 0.3
v -0.2 0.2 0.3
v -0.2 0.3 0.3
v -0.2 1.6 0.3
v -0.2 1.7 0.3
v -0.2 1.8 0.3
v 0.5 0 0.3
v 0.5 0.2 0.3
v 0.5 0.3 0.3
v 0.5 1.6 0.3
v 0.5 1.7 0.3
v 0.5 1.8 0.3
v 0.6 0.1 0.3
v 0.6 0.2 0.3
v 0.6 1.6 0.3
v 0.6 1.7 0.3
v 0.7 0 0.3
v 0.7 0.1 0.3
v 0.7 0.2 0.3
v 0.7 0.3 0.3
v 0.7 1.6 0.3
v 0.8 0 0.3
v 0.8 0.1 0.3
v 0.8 0.2 0.3
v 0.9 0 0.3
v 0.9 0.1 0.3
v -0.5 0 0.2
v -0.5 0.1 0.2
v -0.4 0 0.2
v -0.4 0.1 0.2
v -0.4 0.3 0.2
v -0.3 0.1 0.2
v -0.3 0.2 0.2
v -0.2 0.2 0.2
v -0.2 0.3 0.2
v 0.5 0.2 0.2
v 0.5 0.3 0.2
v 0.6 0.1 0.2
v 0.6 0.2 0.2
v 0.7 0 0.2
v 0.7 0.1 0.2
v 0.7 0.3 0.2
v 0.8 0 0.2
v 0.8 0.1 0.2
v -0.5 0 0.6
v -0.4 0 0.6
v 0.7 0 0.6
v 0.8 0 0.6
v -0.6 0 0.5
v -0.5 0 0.5
v -0.4 0 0.5
v -0.2 0 0.5
v 0.5 0 0.5
v 0.7 0 0.5
v 0.8 0 0.5
v 0.9 0 0.5
v -0.2 0 0.4
v 0.5 0 0.4
v -0.6 0 0.3
v -0.5 0 0.3
v -0.4 0 0.3
v -0.2 0 0.3
v 0.5 0 0.3
v 0.7 0 0.3
v 0.8 0 0.3
v 0.9 0 0.3
v -0.5 0 0.2
v -0.4 0 0.2
v 0.7 0 0.2
v 0.8 0 0.2
v -0.4 0.1 0.6
v -0.3 0.1 0.6
v 0.6 0.1 0.6
v 0.7 0.1 0.6
v -0.4 0.1 0.5
v -0.3 0.1 0.5
v 0.6 0.1 0.5
v 0.7 0.1 0.5
v -0.4 0.1 0.3
v -0.3 0.1 0.3
v 0.6 0.1 0.3
v 0.7 0.1 0.3
v -0.4 0.1 0.2
v -0.3 0.1 0.2
v 0.6 0.1 0.2
v 0.7 0.1 0.2
v -0.3 0.2 0.6
v -0.2 0.2 0.6
v 0.5 0.2 0.6
v 0.6 0.2 0.6
v -0.3 0.2 0.5
v -0.2 0.2 0.5
v 0.5 0.2 0.5
v 0.6 0.2 0.5
v -0.3 0.2 0.3
v -0.2 0.2 0.3
v 0.5 0.2 0.3
v 0.6 0.2 0.3
v -0.3 0.2 0.2
v -0.2 0.2 0.2
v 0.5 0.2 0.2
v 0.6 0.2 0.2
v -0.3 0.3 0.5
v -0.2 0.3 0.5
v 0.5 0.3 0.5
v 0.6 0.3 0.5
v -0.2 0.3 0.4
v 0.5 0.3 0.4
v -0.3 0.3 0.3
v -0.2 0.3 0.3
v 0.5 0.3 0.3
v 0.6 0.3 0.3
v -0.2 1.6 0.4
v 0.5 1.6 0.4
v -0.2 1.6 0.3
v 0.5 1.6 0.3
v -0.5 0.1 0.6
v -0.4 0.1 0.6
v 0.7 0.1 0.6
v 0.8 0.1 0.6
v -0.6 0.1 0.5
v -0.5 0.1 0.5
v -0.4 0.1 0.5
v 0.7 0.1 0.5
v 0.8 0.1 0.5
v 0.9 0.1 0.5
v -0.6 0.1 0.3
v -0.5 0.1 0.3
v -0.4 0.1 0.3
v 0.7 0.1 0.3
v 0.8 0.1 0.3
v 0.9 0.1 0.3
v -0.5 0.1 0.2
v -0.4 0.1 0.2
v 0.7 0.1 0.2
v 0.8 0.1 0.2
v -0.5 0.2 0.5
v -0.4 0.2 0.5
v -0.3 0.2 0.5
v -0.2 0.2 0.5
v 0.5 0.2 0.5
v 0.6 0.2 0.5
v 0.7 0.2 0.5
v 0.8 0.2 0.5
v -0.2 0.2 0.4
v 0.5 0.2 0.4
v -0.5 0.2 0.3
v -0.4 0.2 0.3
v -0.3 0.2 0.3
v -0.2 0.2 0.3
v 0.5 0.2 0.3
v 0.6 0.2 0.3
v 0.7 0.2 0.3
v 0.8 0.2 0.3
v -0.4 0.3 0.6
v -0.2 0.3 0.6
v 0.5 0.3 0.6
v 0.7 0.3 0.6
v -0.4 0.3 0.5
v -0.2 0.3 0.5
v 0.5 0.3 0.5
v 0.7 0.3 0.5
v -0.4 0.3 0.3
v -0.2 0.3 0.3
v 0.5 0.3 0.3
v 0.7 0.3 0.3
v -0.4 0.3 0.2
v -0.2 0.3 0.2
v 0.5 0.3 0.2
v 0.7 0.3 0.2
v -0.4 1.6 0.5
v -0.3 1.6 0.5
v 0.6 1.6 0.5
v 0.7 1.6 0.5
v -0.4 1.6 0.3
v -0.3 1.6 0.3
v 0.6 1.6 0.3
v 0.7 1.6 0.3
v -0.3 1.7 0.5
v -0.2 1.7 0.5
v 0.5 1.7 0.5
v 0.6 1.7 0.5
v -0.3 1.7 0.3
v -0.2 1.7 0.3
v 0.5 1.7 0.3
v 0.6 1.7 0.3
v -0.2 1.8 0.5
v 0.5 1.8 0.5
v -0.2 1.8 0.3
v 0.5 1.8 0.3

# faces
f 3/1/1 2/1/1 1/1/1
f 4/1/1 2/1/1 3/1/1
f 9/1/1 6/1/1 5/1/1
f 10/1/1 6/1/1 9/1/1
f 11/1/1 8/1/1 7/1/1
f 12/1/1 8/1/1 11/1/1
f 13/1/1 11/1/1 10/1/1
f 14/1/1 11/1/1 13/1/1
f 19/1/1 16/1/1 15/1/1
f 20/1/1 18/1/1 17/1/1
f 21/1/1 19/1/1 15/1/1
f 21/1/1 20/1/1 19/1/1
f 22/1/1 20/1/1 21/1/1
f 23/1/1 18/1/1 20/1/1
f 23/1/1 20/1/1 22/1/1
f 24/1/1 18/1/1 23/1/1
f 25/1/1 23/1/1 22/1/1
f 26/1/1 23/1/1 25/1/1
f 29/1/1 28/1/1 27/1/1
f 30/1/1 28/1/1 29/1/1
f 33/3/1 32/3/1 31/3/1
f 34/3/1 32/3/1 33/3/1
f 37/1/1 36/1/1 35/1/1
f 38/1/1 36/1/1 37/1/1
f 43/1/1 40/1/1 39/1/1
f 44/1/1 40/1/1 43/1/1
f 46/1/1 42/1/1 41/1/1
f 47/1/1 42/1/1 46/1/1
f 49/1/1 45/1/1 44/1/1
f 50/1/1 45/1/1 49/1/1
f 51/1/1 49/1/1 48/1/1
f 52/1/1 49/1/1 51/1/1
f 57/1/1 54/1/1 53/1/1
f 58/1/1 54/1/1 57/1/1
f 59/1/1 56/1/1 55/1/1
f 60/1/1 56/1/1 59/1/1
f 61/1/1 59/1/1 58/1/1
f 62/1/1 59/1/1 61/1/1
f 67/1/1 64/1/1 63/1/1
f 68/1/1 64/1/1 67/1/1
f 69/1/1 66/1/1 65/1/1
f 70/1/1 66/1/1 69/1/1
f 71/1/2 72/1/2 75/1/2
f 75/1/2 72/1/2 76/1/2
f 73/1/2 74/1/2 77/1/2
f 77/1/2 74/1/2 78/1/2
f 79/1/2 80/1/2 83/1/2
f 83/1/2 80/1/2 84/1/2
f 81/1/2 82/1/2 85/1/2
f 85/1/2 82/1/2 86/1/2
f 84/1/2 85/1/2 87/1/2
f 87/1/2 85/1/2 88/1/2
f 89/1/2 90/1/2 93/1/2
f 93/1/2 90/1/2 94/1/2
f 91/1/2 92/1/2 96/1/2
f 96/1/2 92/1/2 97/1/2
f 94/1/2 95/1/2 99/1/2
f 99/1/2 95/1/2 100/1/2
f 98/1/2 99/1/2 101/1/2
f 101/1/2 99/1/2 102/1/2
f 103/3/2 104/3/2 105/3/2
f 105/3/2 104/3/2 106/3/2
f 107/1/2 108/1/2 109/1/2
f 109/1/2 108/1/2 110/1/2
f 111/1/2 112/1/2 113/1/2
f 113/1/2 112/1/2 114/1/2
f 115/1/2 116/1/2 119/1/2
f 117/1/2 118/1/2 120/1/2
f 115/1/2 119/1/2 121/1/2
f 119/1/2 120/1/2 121/1/2
f 121/1/2 120/1/2 122/1/2
f 120/1/2 118/1/2 123/1/2
f 122/1/2 120/1/2 123/1/2
f 123/1/2 118/1/2 124/1/2
f 122/1/2 123/1/2 125/1/2
f 125/1/2 123/1/2 126/1/2
f 127/1/2 128/1/2 131/1/2
f 131/1/2 128/1/2 132/1/2
f 129/1/2 130/1/2 133/1/2
f 133/1/2 130/1/2 134/1/2
f 132/1/2 133/1/2 135/1/2
f 135/1/2 133/1/2 136/1/2
f 137/1/2 138/1/2 139/1/2
f 139/1/2 138/1/2 140/1/2
f 143/1/3 142/1/3 141/1/3
f 144/1/3 142/1/3 143/1/3
f 146/1/3 145/1/3 144/1/3
f 147/1/3 145/1/3 146/1/3
f 148/1/3 145/1/3 147/1/3
f 149/1/3 145/1/3 148/1/3
f 153/1/3 151/1/3 150/1/3
f 155/1/3 153/1/3 152/1/3
f 156/1/3 151/1/3 153/1/3
f 156/1/3 153/1/3 155/1/3
f 157/1/3 155/1/3 154/1/3
f 158/1/3 155/1/3 157/1/3
f 161/1/3 160/1/3 159/1/3
f 162/1/3 160/1/3 161/1/3
f 165/1/3 163/1/3 162/1/3
f 166/1/3 163/1/3 165/1/3
f 169/1/3 165/1/3 164/1/3
f 171/1/3 168/1/3 167/1/3
f 173/1/3 170/1/3 169/1/3
f 173/1/3 169/1/3 164/1/3
f 174/1/3 170/1/3 173/1/3
f 175/1/3 172/1/3 171/1/3
f 175/1/3 171/1/3 167/1/3
f 176/1/3 172/1/3 175/1/3
f 177/1/3 172/1/3 176/1/3
f 179/3/3 174/3/3 173/3/3
f 179/3/3 175/3/3 174/3/3
f 179/3/3 176/3/3 175/3/3
f 180/3/3 176/3/3 179/3/3
f 181/3/3 176/3/3 180/3/3
f 182/1/3 178/1/3 177/1/3
f 182/3/3 176/3/3 181/3/3
f 182/1/3 177/1/3 176/1/3
f 183/1/3 178/1/3 182/1/3
f 184/1/3 178/1/3 183/1/3
f 185/1/3 180/1/3 179/1/3
f 186/1/3 180/1/3 185/1/3
f 187/1/3 183/1/3 182/1/3
f 187/1/3 182/1/3 181/1/3
f 188/1/3 183/1/3 187/1/3
f 189/1/3 185/1/3 179/1/3
f 190/1/3 185/1/3 189/1/3
f 192/1/3 187/1/3 181/1/3
f 193/1/3 187/1/3 192/1/3
f 195/1/3 191/1/3 190/1/3
f 196/1/3 191/1/3 195/1/3
f 197/1/3 195/1/3 194/1/3
f 198/1/3 195/1/3 197/1/3
f 201/1/3 200/1/3 199/1/3
f 202/1/3 200/1/3 201/1/3
f 205/1/3 204/1/3 203/1/3
f 206/1/3 204/1/3 205/1/3
f 207/1/4 208/1/4 209/1/4
f 209/1/4 208/1/4 210/1/4
f 211/1/4 212/1/4 213/1/4
f 213/1/4 212/1/4 214/1/4
f 215/3/4 216/3/4 219/3/4
f 217/3/4 218/3/4 219/3/4
f 216/3/4 217/3/4 219/3/4
f 219/3/4 218/3/4 220/3/4
f 220/3/4 218/3/4 221/3/4
f 221/3/4 218/3/4 222/3/4
f 223/1/4 224/1/4 225/1/4
f 225/1/4 224/1/4 226/1/4
f 226/1/4 227/1/4 229/1/4
f 229/1/4 227/1/4 230/1/4
f 228/1/4 229/1/4 233/1/4
f 231/1/4 232/1/4 235/1/4
f 233/1/4 234/1/4 237/1/4
f 228/1/4 233/1/4 237/1/4
f 237/1/4 234/1/4 238/1/4
f 235/1/4 236/1/4 239/1/4
f 231/1/4 235/1/4 239/1/4
f 239/1/4 236/1/4 240/1/4
f 240/1/4 236/1/4 241/1/4
f 241/1/4 242/1/4 246/1/4
f 240/1/4 241/1/4 246/1/4
f 246/1/4 242/1/4 247/1/4
f 247/1/4 242/1/4 248/1/4
f 243/1/4 244/1/4 249/1/4
f 249/1/4 244/1/4 250/1/4
f 245/1/4 246/1/4 251/1/4
f 246/1/4 247/1/4 251/1/4
f 251/1/4 247/1/4 252/1/4
f 243/1/4 249/1/4 253/1/4
f 253/1/4 249/1/4 254/1/4
f 245/1/4 251/1/4 256/1/4
f 256/1/4 251/1/4 257/1/4
f 254/1/4 255/1/4 259/1/4
f 259/1/4 255/1/4 260/1/4
f 258/1/4 259/1/4 261/1/4
f 261/1/4 259/1/4 262/1/4
f 263/1/4 264/1/4 265/1/4
f 265/1/4 264/1/4 266/1/4
f 266/1/4 267/1/4 268/1/4
f 268/1/4 267/1/4 269/1/4
f 269/1/4 267/1/4 270/1/4
f 270/1/4 267/1/4 271/1/4
f 272/1/4 273/1/4 275/1/4
f 274/1/4 275/1/4 277/1/4
f 275/1/4 273/1/4 278/1/4
f 277/1/4 275/1/4 278/1/4
f 276/1/4 277/1/4 279/1/4
f 279/1/4 277/1/4 280/1/4
f 286/1/5 282/1/5 281/1/5
f 287/1/5 282/1/5 286/1/5
f 290/1/5 284/1/5 283/1/5
f 291/1/5 284/1/5 290/1/5
f 293/3/5 289/3/5 288/3/5
f 293/1/5 286/1/5 285/1/5
f 293/1/5 287/1/5 286/1/5
f 293/1/5 288/1/5 287/1/5
f 294/1/5 292/1/5 291/1/5
f 294/3/5 289/3/5 293/3/5
f 294/1/5 291/1/5 290/1/5
f 294/1/5 290/1/5 289/1/5
f 295/1/5 293/1/5 285/1/5
f 296/1/5 293/1/5 295/1/5
f 297/1/5 293/1/5 296/1/5
f 298/1/5 293/1/5 297/1/5
f 299/1/5 292/1/5 294/1/5
f 300/1/5 292/1/5 299/1/5
f 301/1/5 292/1/5 300/1/5
f 302/1/5 292/1/5 301/1/5
f 303/1/5 297/1/5 296/1/5
f 304/1/5 297/1/5 303/1/5
f 305/1/5 301/1/5 300/1/5
f 306/1/5 301/1/5 305/1/5
f 311/1/5 308/1/5 307/1/5
f 312/1/5 308/1/5 311/1/5
f 313/1/5 310/1/5 309/1/5
f 314/1/5 310/1/5 313/1/5
f 319/1/5 316/1/5 315/1/5
f 320/1/5 316/1/5 319/1/5
f 321/1/5 318/1/5 317/1/5
f 322/1/5 318/1/5 321/1/5
f 327/1/5 324/1/5 323/1/5
f 328/1/5 324/1/5 327/1/5
f 329/1/5 326/1/5 325/1/5
f 330/1/5 326/1/5 329/1/5
f 335/1/5 332/1/5 331/1/5
f 336/1/5 332/1/5 335/1/5
f 337/1/5 334/1/5 333/1/5
f 338/1/5 334/1/5 337/1/5
f 343/1/5 340/1/5 339/1/5
f 344/1/5 342/1/5 341/1/5
f 345/1/5 343/1/5 339/1/5
f 346/1/5 343/1/5 345/1/5
f 347/1/5 342/1/5 344/1/5
f 348/1/5 342/1/5 347/1/5
f 351/1/5 350/1/5 349/1/5
f 352/1/5 350/1/5 351/1/5
f 353/1/6 354/1/6 358/1/6
f 358/1/6 354/1/6 359/1/6
f 355/1/6 356/1/6 360/1/6
f 360/1/6 356/1/6 361/1/6
f 357/1/6 358/1/6 363/1/6
f 363/1/6 358/1/6 364/1/6
f 361/1/6 362/1/6 367/1/6
f 367/1/6 362/1/6 368/1/6
f 364/1/6 365/1/6 369/1/6
f 369/1/6 365/1/6 370/1/6
f 366/1/6 367/1/6 371/1/6
f 371/1/6 367/1/6 372/1/6
f 375/1/6 376/1/6 381/1/6
f 377/1/6 378/1/6 382/1/6
f 373/1/6 374/1/6 383/1/6
f 383/1/6 374/1/6 384/1/6
f 375/1/6 381/1/6 385/1/6
f 385/1/6 381/1/6 386/1/6
f 382/1/6 378/1/6 387/1/6
f 387/1/6 378/1/6 388/1/6
f 379/1/6 380/1/6 389/1/6
f 389/1/6 380/1/6 390/1/6
f 391/1/6 392/1/6 395/1/6
f 395/1/6 392/1/6 396/1/6
f 393/1/6 394/1/6 397/1/6
f 397/1/6 394/1/6 398/1/6
f 399/1/6 400/1/6 403/1/6
f 403/1/6 400/1/6 404/1/6
f 401/1/6 402/1/6 405/1/6
f 405/1/6 402/1/6 406/1/6
f 407/1/6 408/1/6 411/1/6
f 411/1/6 408/1/6 412/1/6
f 409/1/6 410/1/6 413/1/6
f 413/1/6 410/1/6 414/1/6
f 415/1/6 416/1/6 419/1/6
f 419/1/6 416/1/6 420/1/6
f 417/1/6 418/1/6 421/1/6
f 421/1/6 418/1/6 422/1/6
f 423/1/6 424/1/6 425/1/6
f 425/1/6 424/1/6 426/1/6
